<svg xmlns="http://www.w3.org/2000/svg" viewBox="0 0 598.87 599.69"><defs><style>.cls-1{fill:#e93d4e;}.cls-2{fill:#261f21;}.cls-3{fill:#f0f0f0;}.cls-4{fill:#c1bb9c;}.cls-5{fill:#343434;}.cls-6{fill:#151313;}.cls-7{fill:#1e1c1b;}.cls-8{fill:#1e1c1a;}.cls-9{fill:#bbb69a;}.cls-10{fill:#181615;}.cls-11{fill:#bfba9b;}.cls-12{fill:#beb99c;}</style></defs><g id="Layer_2" data-name="Layer 2"><g id="Layer_1-2" data-name="Layer 1"><path class="cls-1" d="M275,0h20c-1.16,9.41-2.23,18.83-3.49,28.23-3.81,28.47-11.32,56.08-20.12,83.31-9.08,28.1-7.25,55.08,6.45,81.21,4.63,8.83,9.51,17.54,14.28,26.3-1,.09-2,.25-3,.25-33.32,0-66.65,0-100,0-7.3,0-14.66-.09-21.89.77-30.65,3.68-54.35,18.78-71,44.69C84.48,283.1,80.6,303.44,81.88,325c.17,9.75-1,19.75.74,29.21,7.32,40.1,37.29,69.47,77.78,77.45,36.94,7.27,76.09-9.73,97.58-42.59,2-3,4-4.19,7.59-4.16q34,.25,68,0c4.34,0,6.77,1.29,9.19,5,29.47,44.66,89.52,57,133.7,26.86C505.27,397,520,369.3,518.94,333.9c-.16-12.09,1.25-24.45-.75-36.22a94.51,94.51,0,0,0-90.91-78.09c-35.08-1-70.22-.24-105.33-.29-3.32,0-6.64-.16-10-.24-6-10.55-12.18-21-18-31.66-12.24-22.48-14.52-45.76-6.53-70.36,11-33.89,19.52-68.41,23.09-104,.43-4.39,1.6-8.7,2.43-13h9a15.55,15.55,0,0,0,3.09,1c40.47,3.5,78.77,14.48,114.56,33.72C553.94,96.14,615.73,218.91,594.86,347.05c-15.68,96.28-67.6,168.89-153,215.61-77.67,42.51-159.63,47.94-243.3,18.78C94.06,545,17.56,450.36,2.83,340.45,2,334.28,1,328.15,0,322V276a23.61,23.61,0,0,0,1.1-3.53c2-12.31,3.3-24.74,5.86-36.92C32.44,114.18,134.81,19.27,257.61,2.86,263.43,2.08,269.2,1,275,0Z"/><path class="cls-2" d="M313,0c-.83,4.34-2,8.65-2.43,13C307,48.63,298.48,83.15,287.48,117c-8,24.6-5.71,47.88,6.53,70.36,5.8,10.66,12,21.11,18,31.66H292.12c-4.77-8.76-9.65-17.47-14.28-26.3-13.7-26.13-15.53-53.11-6.45-81.21,8.8-27.23,16.31-54.84,20.12-83.31C292.77,18.83,293.84,9.41,295,0Z"/><path class="cls-3" d="M292.12,219.05H312c3.32.08,6.64.24,10,.24,35.11,0,70.25-.68,105.33.29a94.51,94.51,0,0,1,90.91,78.09c2,11.77.59,24.13.75,36.22a9.5,9.5,0,0,0-.81,1.79c-9.42,41.45-42.29,72.06-84.27,75.91C395.4,415.13,364.74,400,342.8,368c-1.73-2.52-3.21-4.07-6.62-4q-35.24.25-70.45,0c-3,0-4.72,1.12-6.49,3.49-4.56,6.12-8.9,12.61-14.42,17.77-23.19,21.66-50.76,30.51-82.21,25.67-22.31-3.43-41.07-13.89-56.24-30.72-14.18-15.74-22-34.29-24.49-55.2-1.28-21.51,2.6-41.85,14.38-60.16,16.67-25.91,40.37-41,71-44.69,7.23-.86,14.59-.75,21.89-.77,33.32-.07,66.65,0,100,0C290.13,219.3,291.12,219.14,292.12,219.05Zm-133,150.79a43.88,43.88,0,0,0-.05,4.44c.8,9.84,8.43,16.43,18.1,15.7,9.14-.69,15.31-8.39,14.61-18.25.08-2.58.15-5.16.23-7.75l.9-18c8.62,0,17.23.15,25.85.1,11.24-.06,17.72-7.11,17-18.36.05-1.92.09-3.84.14-5.76,0-1.16,0-2.32,0-3.48,0-15.13-5.46-20.56-20.76-20.57H192.14c0-9.53.15-18.51,0-27.48a16.39,16.39,0,0,0-16.26-16.22,16.65,16.65,0,0,0-16.69,15.91c-.3,6.31-.12,12.65-.15,19,0,2.91,0,5.82,0,8.83H132.74A16.61,16.61,0,0,0,119,304.75c-3.57,4.6-3.33,9.93-2.8,15.29v7.77c-.67,11.09,5.78,18.24,16.68,18.33,8.65.07,17.31,0,26,0l.39,18.9ZM361,315c-.56,12.36,8.41,22.14,21,22.86,11.67.67,21.56-8.37,22.76-20.83,0-3,.29-6,0-8.93-.87-10-8-18.15-17.29-20-9.72-1.94-20.08,2.25-23.9,11.05C361.53,303.9,361.79,309.68,361,315Zm90,2c.41,11.41,9.28,20.18,21.08,20.85,11.29.64,21-7.88,22.66-19.83,0-3.47.36-7,.06-10.41a21.77,21.77,0,0,0-20.2-19.79c-11.38-.71-21.28,6.42-23.3,17.3C450.63,309,451.11,313,451,317ZM406.2,363c1.59,11.81,11.05,20.15,22.38,19.74,11.73-.42,20.83-9.27,21.35-20.76,0-2.65.17-5.3.12-7.95a22,22,0,0,0-43.93-1.48C405.85,356,406.16,359.54,406.2,363Zm43.55-92c0-2.81.28-5.65,0-8.43-1.39-14.66-15.59-24.11-29.1-19.37C411.93,246.29,404,254.64,406,269a21.38,21.38,0,0,0,19.69,23.15C438.72,293.08,448.78,284.24,449.75,271Z"/><path class="cls-4" d="M81.88,325c2.51,20.91,10.31,39.46,24.49,55.2,15.17,16.83,33.93,27.29,56.24,30.72,31.45,4.84,59-4,82.21-25.67,5.52-5.16,9.86-11.65,14.42-17.77,1.77-2.37,3.45-3.5,6.49-3.49q35.22.18,70.45,0c3.41,0,4.89,1.52,6.62,4,21.94,32,52.6,47.17,91.06,43.64,42-3.85,74.85-34.46,84.27-75.91a9.5,9.5,0,0,1,.81-1.79c1,35.4-13.67,63.08-42.51,82.75-44.18,30.13-104.23,17.8-133.7-26.86-2.42-3.66-4.85-5-9.19-5q-34,.33-68,0c-3.62,0-5.63,1.17-7.59,4.16-21.49,32.86-60.64,49.86-97.58,42.59-40.49-8-70.46-37.35-77.78-77.45C80.9,344.7,82.05,334.7,81.88,325Z"/><path class="cls-5" d="M159.18,365l-.39-18.9.24-6.32a15.68,15.68,0,0,1,0-2.47c.78-4.93-1-6.89-6.2-6.44s-10.62-.28-15.87.18c-9.47.83-16.41-2.55-20.8-11-.53-5.36-.77-10.69,2.8-15.29A16.61,16.61,0,0,1,132.74,298H159c0-3,0-5.92,0-8.83,0-6.32-.15-12.66.15-19a16.65,16.65,0,0,1,16.69-15.91,16.39,16.39,0,0,1,16.26,16.22c.19,9,0,17.95,0,27.48h23.07c15.3,0,20.78,5.44,20.76,20.57,0,1.16,0,2.32,0,3.48a9,9,0,0,0-2.31,1.63c-4.11,5.57-9.59,7.76-16.43,7.41-5.3-.27-10.62-.1-15.92-.05-10.31.11-9.27-1.42-9.22,9.26.29,1.93.57,3.85.86,5.77l-.9,18a10.67,10.67,0,0,0-2,2.1c-5,9.68-18.51,12.13-27,2.53A50.62,50.62,0,0,0,159.18,365Z"/><path class="cls-5" d="M406,269c-2-14.37,5.92-22.72,14.65-25.78,13.51-4.74,27.71,4.71,29.1,19.37.27,2.78,0,5.62,0,8.43a25.6,25.6,0,0,0-3,3.68c-5.8,10.33-17.47,13.89-28.34,9.1C411.61,280.83,408.62,275.2,406,269Z"/><path class="cls-5" d="M406.2,363c0-3.49-.35-7-.08-10.45a22,22,0,0,1,43.93,1.48c.05,2.65-.08,5.3-.12,7.95a33.1,33.1,0,0,0-3,3.62,21.93,21.93,0,0,1-37.6.18C408.61,364.68,407.26,363.94,406.2,363Z"/><path class="cls-5" d="M451,317c.07-4-.41-8,.3-11.88,2-10.88,11.92-18,23.3-17.3a21.77,21.77,0,0,1,20.2,19.79c.3,3.44,0,6.94-.06,10.41-1.06.93-2.53,1.65-3.11,2.82-6.57,13-29.11,14.63-37.34.19A29.87,29.87,0,0,0,451,317Z"/><path class="cls-5" d="M361,315c.79-5.32.53-11.1,2.6-15.86,3.82-8.8,14.18-13,23.9-11.05,9.28,1.86,16.42,10,17.29,20,.25,3,0,5.95,0,8.93a21.54,21.54,0,0,0-3.1,3.63c-6.68,12.6-26.31,14.21-34.9,3.52C364.51,321.38,362.9,318.07,361,315Z"/><path class="cls-6" d="M192.08,340.26c-.05-10.68-1.09-9.15,9.22-9.26,5.3-.05,10.62-.22,15.92.05,6.84.35,12.32-1.84,16.43-7.41A9,9,0,0,1,236,322c-.05,1.92-.09,3.84-.14,5.76-3.76,8.76-10.49,12.16-19.87,11.88C208,339.42,200,340,192.08,340.26Z"/><path class="cls-6" d="M116.15,320c4.39,8.49,11.33,11.87,20.8,11,5.25-.46,10.61.27,15.87-.18s7,1.51,6.2,6.44a15.68,15.68,0,0,0,0,2.47c-7.75-.08-15.51-.44-23.24-.16-9.29.33-15.92-3.2-19.64-11.84Z"/><path class="cls-7" d="M361,315c1.9,3.07,3.51,6.38,5.75,9.18,8.59,10.69,28.22,9.08,34.9-3.52a21.54,21.54,0,0,1,3.1-3.63c-1.2,12.46-11.09,21.5-22.76,20.83C369.41,337.14,360.44,327.36,361,315Z"/><path class="cls-8" d="M451,317a29.87,29.87,0,0,1,3.29,4c8.23,14.44,30.77,12.79,37.34-.19.58-1.17,2.05-1.89,3.11-2.82-1.63,12-11.37,20.47-22.66,19.83C460.32,337.19,451.45,328.42,451,317Z"/><path class="cls-8" d="M406.2,363c1.06.91,2.41,1.65,3.13,2.78a21.93,21.93,0,0,0,37.6-.18,33.1,33.1,0,0,1,3-3.62c-.52,11.49-9.62,20.34-21.35,20.76C417.25,383.18,407.79,374.84,406.2,363Z"/><path class="cls-8" d="M406,269c2.61,6.19,5.6,11.82,12.36,14.8,10.87,4.79,22.54,1.23,28.34-9.1a25.6,25.6,0,0,1,3-3.68c-1,13.21-11,22.05-24.05,21.13A21.38,21.38,0,0,1,406,269Z"/><path class="cls-9" d="M192.08,340.26c8-.23,15.93-.84,23.87-.61,9.38.28,16.11-3.12,19.87-11.88.69,11.25-5.79,18.3-17,18.36-8.62.05-17.23-.06-25.85-.1C192.65,344.11,192.37,342.19,192.08,340.26Z"/><path class="cls-10" d="M159.18,365a50.62,50.62,0,0,1,3.87,3.58c8.48,9.6,22,7.15,27-2.53a10.67,10.67,0,0,1,2-2.1c-.08,2.59-.15,5.17-.23,7.75-3.06,6.1-7.25,10.76-14.57,11.32-8.62.67-14.21-3.45-18.09-13.21Z"/><path class="cls-11" d="M116.15,327.81c3.72,8.64,10.35,12.17,19.64,11.84,7.73-.28,15.49.08,23.24.16l-.24,6.32c-8.65,0-17.31.08-26,0C121.93,346.05,115.48,338.9,116.15,327.81Z"/><path class="cls-12" d="M159.15,369.84c3.88,9.76,9.47,13.88,18.09,13.21,7.32-.56,11.51-5.22,14.57-11.32.7,9.86-5.47,17.56-14.61,18.25-9.67.73-17.3-5.86-18.1-15.7A43.88,43.88,0,0,1,159.15,369.84Z"/></g></g></svg>